<?xml version="1.0" encoding="UTF-8" standalone="no"?>
<!-- Created with Inkscape (http://www.inkscape.org/) -->

<svg
   width="502.70801mm"
   height="502.70801mm"
   viewBox="0 0 502.70801 502.70801"
   version="1.1"
   id="svg5"
   inkscape:version="1.2.2 (732a01da63, 2022-12-09)"
   xml:space="preserve"
   sodipodi:docname="Canva_circled_2021.svg"
   xmlns:inkscape="http://www.inkscape.org/namespaces/inkscape"
   xmlns:sodipodi="http://sodipodi.sourceforge.net/DTD/sodipodi-0.dtd"
   xmlns="http://www.w3.org/2000/svg"
   xmlns:svg="http://www.w3.org/2000/svg"><sodipodi:namedview
     id="namedview7"
     pagecolor="#626262"
     bordercolor="#000000"
     borderopacity="0.25"
     inkscape:showpageshadow="2"
     inkscape:pageopacity="0"
     inkscape:pagecheckerboard="true"
     inkscape:deskcolor="#383838"
     inkscape:document-units="mm"
     showgrid="false"
     inkscape:zoom="0.24918733"
     inkscape:cx="1003.2613"
     inkscape:cy="951.09169"
     inkscape:window-width="1366"
     inkscape:window-height="705"
     inkscape:window-x="-8"
     inkscape:window-y="-8"
     inkscape:window-maximized="1"
     inkscape:current-layer="layer1" /><defs
     id="defs2"><radialGradient
       id="a"
       cx="0"
       cy="0"
       r="1"
       gradientTransform="matrix(955.99459,-1116.0086,1116.0086,955.99459,367.00866,1684.0115)"
       gradientUnits="userSpaceOnUse"><stop
         stop-color="#6420FF"
         id="stop141" /><stop
         offset="1"
         stop-color="#6420FF"
         stop-opacity="0"
         id="stop143" /></radialGradient><radialGradient
       id="b"
       cx="0"
       cy="0"
       r="1"
       gradientTransform="matrix(957.50861,1352.4881,-1352.4881,957.50861,502.9967,215.99598)"
       gradientUnits="userSpaceOnUse"><stop
         stop-color="#00C4CC"
         id="stop146" /><stop
         offset="1"
         stop-color="#00C4CC"
         stop-opacity="0"
         id="stop148" /></radialGradient><radialGradient
       id="c"
       cx="0"
       cy="0"
       r="1"
       gradientTransform="matrix(1023.0002,-1030.0017,473.71139,470.4913,367,1684)"
       gradientUnits="userSpaceOnUse"><stop
         stop-color="#6420FF"
         id="stop151" /><stop
         offset="1"
         stop-color="#6420FF"
         stop-opacity="0"
         id="stop153" /></radialGradient><radialGradient
       id="d"
       cx="0"
       cy="0"
       r="1"
       gradientTransform="matrix(595.99869,1371.9995,-2298.406,998.43108,777,256)"
       gradientUnits="userSpaceOnUse"><stop
         stop-color="#00C4CC"
         stop-opacity=".725916"
         id="stop156" /><stop
         offset=".0001"
         stop-color="#00C4CC"
         id="stop158" /><stop
         offset="1"
         stop-color="#00C4CC"
         stop-opacity="0"
         id="stop160" /></radialGradient><radialGradient
       id="_2002046508__a"
       cx="0"
       cy="0"
       r="1"
       gradientTransform="matrix(16.80002,-17.28,11.48403,11.16504,40.96,29)"
       gradientUnits="userSpaceOnUse"><stop
         stop-color="#6420FF"
         id="stop573" /><stop
         offset="1"
         stop-color="#6420FF"
         stop-opacity="0"
         id="stop575" /></radialGradient><radialGradient
       id="_2002046508__b"
       cx="0"
       cy="0"
       r="1"
       gradientTransform="matrix(46.71996,4.16,-3.31561,37.23688,1.92,17.64)"
       gradientUnits="userSpaceOnUse"><stop
         offset=".25"
         stop-color="#00C4CC"
         id="stop578" /><stop
         offset="1"
         stop-color="#00C4CC"
         stop-opacity="0"
         id="stop580" /></radialGradient><radialGradient
       id="_2002046508__c"
       cx="0"
       cy="0"
       r="1"
       gradientTransform="matrix(23.539732,-18.960276,12.964448,16.095738,34.137074,26.202638)"
       gradientUnits="userSpaceOnUse"><stop
         stop-color="#6420FF"
         id="stop583" /><stop
         offset="1"
         stop-color="#6420FF"
         stop-opacity="0"
         id="stop585" /></radialGradient><radialGradient
       id="_2002046508__d"
       cx="0"
       cy="0"
       r="1"
       gradientTransform="matrix(31.32001,-15.36,10.50269,21.41566,2.28,26.2)"
       gradientUnits="userSpaceOnUse"><stop
         stop-color="#6420FF"
         id="stop588" /><stop
         offset="1"
         stop-color="#6420FF"
         stop-opacity="0"
         id="stop590" /></radialGradient><radialGradient
       id="_2002046508__e"
       cx="0"
       cy="0"
       r="1"
       gradientTransform="matrix(67.99982,15.03996,-18.44596,83.39925,7.68,2.92)"
       gradientUnits="userSpaceOnUse"><stop
         stop-color="#00C4CC"
         id="stop593" /><stop
         offset="1"
         stop-color="#00C4CC"
         stop-opacity="0"
         id="stop595" /></radialGradient><pattern
       id="_2002046508__f"
       width="1"
       height="1"><path
         fill="#7D2AE7"
         d="M0 0h100v100H0z"
         id="path598" /><path
         fill="url(#_2002046508__a)"
         d="M0 0h100v100H0z"
         id="path600" /><path
         fill="url(#_2002046508__b)"
         d="M0 0h100v100H0z"
         id="path602" /><path
         fill="url(#_2002046508__c)"
         d="M0 0h100v100H0z"
         id="path604" /><path
         fill="url(#_2002046508__d)"
         d="M0 0h100v100H0z"
         id="path606" /><path
         fill="url(#_2002046508__e)"
         d="M0 0h100v100H0z"
         id="path608" /></pattern><radialGradient
       id="_2002046508__a-3"
       cx="0"
       cy="0"
       r="1"
       gradientTransform="matrix(16.80002,-17.28,11.48403,11.16504,40.96,29)"
       gradientUnits="userSpaceOnUse"><stop
         stop-color="#6420FF"
         id="stop645" /><stop
         offset="1"
         stop-color="#6420FF"
         stop-opacity="0"
         id="stop647" /></radialGradient><radialGradient
       id="_2002046508__b-2"
       cx="0"
       cy="0"
       r="1"
       gradientTransform="matrix(46.71996,4.16,-3.31561,37.23688,1.92,17.64)"
       gradientUnits="userSpaceOnUse"><stop
         offset=".25"
         stop-color="#00C4CC"
         id="stop650" /><stop
         offset="1"
         stop-color="#00C4CC"
         stop-opacity="0"
         id="stop652" /></radialGradient><radialGradient
       id="_2002046508__c-3"
       cx="0"
       cy="0"
       r="1"
       gradientTransform="matrix(23.539732,-18.960276,12.964448,16.095738,34.137074,26.202638)"
       gradientUnits="userSpaceOnUse"><stop
         stop-color="#6420FF"
         id="stop655" /><stop
         offset="1"
         stop-color="#6420FF"
         stop-opacity="0"
         id="stop657" /></radialGradient><radialGradient
       id="_2002046508__d-3"
       cx="0"
       cy="0"
       r="1"
       gradientTransform="matrix(31.32001,-15.36,10.50269,21.41566,2.28,26.2)"
       gradientUnits="userSpaceOnUse"><stop
         stop-color="#6420FF"
         id="stop660" /><stop
         offset="1"
         stop-color="#6420FF"
         stop-opacity="0"
         id="stop662" /></radialGradient><radialGradient
       id="_2002046508__e-0"
       cx="0"
       cy="0"
       r="1"
       gradientTransform="matrix(67.99982,15.03996,-18.44596,83.39925,7.68,2.92)"
       gradientUnits="userSpaceOnUse"><stop
         stop-color="#00C4CC"
         id="stop665" /><stop
         offset="1"
         stop-color="#00C4CC"
         stop-opacity="0"
         id="stop667" /></radialGradient><pattern
       id="_2002046508__f-3"
       width="1"
       height="1"><path
         fill="#7D2AE7"
         d="M0 0h100v100H0z"
         id="path670" /><path
         fill="url(#_2002046508__a)"
         d="M0 0h100v100H0z"
         id="path672"
         style="fill:url(#_2002046508__a-3)" /><path
         fill="url(#_2002046508__b)"
         d="M0 0h100v100H0z"
         id="path674"
         style="fill:url(#_2002046508__b-2)" /><path
         fill="url(#_2002046508__c)"
         d="M0 0h100v100H0z"
         id="path676"
         style="fill:url(#_2002046508__c-3)" /><path
         fill="url(#_2002046508__d)"
         d="M0 0h100v100H0z"
         id="path678"
         style="fill:url(#_2002046508__d-3)" /><path
         fill="url(#_2002046508__e)"
         d="M0 0h100v100H0z"
         id="path680"
         style="fill:url(#_2002046508__e-0)" /></pattern><radialGradient
       id="a-0"
       cx="0"
       cy="0"
       r="1"
       gradientTransform="matrix(955.99459,-1116.0086,1116.0086,955.99459,367.00866,1684.0115)"
       gradientUnits="userSpaceOnUse"><stop
         stop-color="#6420FF"
         id="stop141-7" /><stop
         offset="1"
         stop-color="#6420FF"
         stop-opacity="0"
         id="stop143-2" /></radialGradient><radialGradient
       id="b-8"
       cx="0"
       cy="0"
       r="1"
       gradientTransform="matrix(957.50861,1352.4881,-1352.4881,957.50861,502.9967,215.99598)"
       gradientUnits="userSpaceOnUse"><stop
         stop-color="#00C4CC"
         id="stop146-8" /><stop
         offset="1"
         stop-color="#00C4CC"
         stop-opacity="0"
         id="stop148-6" /></radialGradient><radialGradient
       id="c-2"
       cx="0"
       cy="0"
       r="1"
       gradientTransform="matrix(1023.0002,-1030.0017,473.71139,470.4913,367,1684)"
       gradientUnits="userSpaceOnUse"><stop
         stop-color="#6420FF"
         id="stop151-2" /><stop
         offset="1"
         stop-color="#6420FF"
         stop-opacity="0"
         id="stop153-9" /></radialGradient><radialGradient
       id="d-9"
       cx="0"
       cy="0"
       r="1"
       gradientTransform="matrix(595.99869,1371.9995,-2298.406,998.43108,777,256)"
       gradientUnits="userSpaceOnUse"><stop
         stop-color="#00C4CC"
         stop-opacity=".725916"
         id="stop156-6" /><stop
         offset=".0001"
         stop-color="#00C4CC"
         id="stop158-7" /><stop
         offset="1"
         stop-color="#00C4CC"
         stop-opacity="0"
         id="stop160-7" /></radialGradient></defs><g
     inkscape:label="Layer 1"
     inkscape:groupmode="layer"
     id="layer1"
     transform="matrix(5.0270799,0,0,5.0270799,-243.48302,-416.96036)"><g
       style="fill:none"
       id="g188"
       transform="matrix(0.05263158,0,0,0.05263158,48.434284,82.942855)"><circle
         cx="950"
         cy="950"
         r="950"
         fill="#7d2ae7"
         id="circle129" /><circle
         cx="950"
         cy="950"
         r="950"
         fill="url(#a)"
         id="circle131"
         style="fill:url(#a-0)" /><circle
         cx="950"
         cy="950"
         r="950"
         fill="url(#b)"
         id="circle133"
         style="fill:url(#b-8)" /><circle
         cx="950"
         cy="950"
         r="950"
         fill="url(#c)"
         id="circle135"
         style="fill:url(#c-2)" /><circle
         cx="950"
         cy="950"
         r="950"
         fill="url(#d)"
         id="circle137"
         style="fill:url(#d-9)" /><path
         fill="url(#_2002046508__f)"
         d="m 138.3231,135.69134 c -0.13418,0 -0.25656,0.0869 -0.31973,0.26852 -0.80914,2.30907 -1.90249,3.68266 -2.80243,3.68266 -0.51707,0 -0.72626,-0.57631 -0.72626,-1.48017 0,-2.26166 1.35385,-7.05739 2.03669,-9.24409 0.079,-0.26442 0.13025,-0.50125 0.13025,-0.70257 0,-0.63548 -0.3473,-0.94731 -1.2078,-0.94731 -0.92754,0 -1.92616,0.36327 -2.89714,2.06434 -0.33551,-1.4999 -1.3499,-2.15511 -2.7669,-2.15511 -1.63806,0 -3.22085,1.05386 -4.5234,2.76295 -1.30253,1.7091 -2.83398,2.26958 -3.98653,1.99327 0.82889,-2.02876 1.13675,-3.54446 1.13675,-4.6694 0,-1.76431 -0.87229,-2.83004 -2.28139,-2.83004 -2.14328,0 -3.37874,2.04456 -3.37874,4.19577 0,1.66167 0.75391,3.37079 2.41166,4.19966 -1.38933,3.14189 -3.41815,5.98381 -4.18781,5.98381 -0.99468,0 -1.28676,-4.86679 -1.23152,-8.34809 0.0353,-1.99726 0.20129,-2.09985 0.20129,-2.70377 0,-0.34721 -0.22496,-0.58416 -1.12886,-0.58416 -2.10775,0 -2.75902,1.78409 -2.8577,3.8326 a 10.097633,10.097633 0 0 1 -0.36314,2.30119 c -0.88019,3.14185 -2.69586,5.52591 -3.87999,5.52591 -0.54864,0 -0.69862,-0.54864 -0.69862,-1.26704 0,-2.26164 1.26701,-5.08778 1.26701,-7.49945 0,-1.77221 -0.77758,-2.89321 -2.24195,-2.89321 -1.72487,0 -4.0063,2.05246 -6.16533,5.89695 0.710471,-2.94455 1.002553,-5.79432 -1.10124,-5.79432 a 2.8478223,2.8478223 0 0 0 -1.306483,0.33939 0.74205216,0.74205216 0 0 0 -0.426288,0.71834 c 0.201317,3.13401 -2.526132,11.1624 -5.111477,11.1624 -0.469701,0 -0.698636,-0.50923 -0.698636,-1.33019 0,-2.26562 1.3499,-7.04949 2.028808,-9.24013 0.08684,-0.28421 0.134181,-0.52889 0.134181,-0.74205 0,-0.59997 -0.371005,-0.90784 -1.211752,-0.90784 -0.923613,0 -1.926177,0.35134 -2.893217,2.05249 -0.339456,-1.49987 -1.353848,-2.15511 -2.770853,-2.15511 -2.324829,0 -4.922015,2.45902 -6.062723,5.66407 -1.527523,4.27864 -4.60625,8.41124 -8.750688,8.41124 -3.761572,0 -5.746956,-3.13003 -5.746956,-8.07574 0,-7.14031 5.241732,-12.97405 9.129609,-12.97405 1.859078,0 2.747173,1.1841 2.747173,2.99977 0,2.19851 -1.227545,3.22082 -1.227545,4.0576 0,0.25661 0.213142,0.50916 0.635482,0.50916 1.689353,0 3.678684,-1.98538 3.678684,-4.69309 0,-2.70768 -2.198528,-4.68914 -6.086405,-4.68914 -6.425857,0 -12.891185,6.46534 -12.891185,14.75029 0,6.59163 3.252401,10.56634 8.876998,10.56634 3.836567,0 7.187643,-2.984 8.995406,-6.46534 0.205237,2.88536 1.51568,4.39312 3.512908,4.39312 1.776187,0 3.212928,-1.0578 4.310217,-2.9169 0.42234,1.94592 1.543307,2.89719 2.999782,2.89719 1.669622,0 3.06689,-1.05787 4.397056,-3.02351 -0.01978,1.54332 0.33156,2.99586 1.669624,2.99586 0.631531,0 1.385423,-0.14619 1.519622,-0.69865 1.40911,-5.82591 4.890418,-10.58212 5.956138,-10.58212 0.31578,0 0.40261,0.30395 0.40261,0.6631 0,1.58277 -1.11701,4.82726 -1.11701,6.89952 0,2.23798 0.95122,3.71815 2.91686,3.71815 2.17879,0 4.39313,-2.6682 5.86934,-6.56795 0.46182,3.64313 1.46042,6.58373 3.02346,6.58373 1.91831,0 5.32462,-4.03785 7.38895,-8.31259 0.80915,0.10265 2.02486,0.075 3.19317,-0.74991 -0.49733,1.25913 -0.78939,2.63666 -0.78939,4.01416 0,3.96685 1.89457,5.07992 3.52475,5.07992 1.77222,0 3.20899,-1.0578 4.31021,-2.9169 0.36315,1.6775 1.29071,2.89323 2.99584,2.89323 2.66823,0 4.98518,-2.72745 4.98518,-4.96544 0,-0.59205 -0.25261,-0.95125 -0.54867,-0.95125 z m -55.381548,3.74183 c -1.077553,0 -1.499894,-1.08542 -1.499894,-2.70376 0,-2.81029 1.922236,-7.50339 3.954986,-7.50339 0.88809,0 1.223589,1.04598 1.223589,2.32484 0,2.85374 -1.827499,7.88231 -3.678681,7.88231 z m 36.909168,-8.38755 c -0.64337,-0.76571 -0.87622,-1.80774 -0.87622,-2.73531 0,-1.14467 0.41839,-2.11169 0.91967,-2.11169 0.50125,0 0.65519,0.49335 0.65519,1.18015 0,1.14863 -0.41048,2.82614 -0.69864,3.66685 z m 8.35599,8.38755 c -1.07754,0 -1.49989,-1.24726 -1.49989,-2.70376 0,-2.71161 1.92223,-7.50339 3.97078,-7.50339 0.8881,0 1.20387,1.03807 1.20387,2.32484 0,2.85374 -1.79593,7.88231 -3.67476,7.88231 z"
         id="path685"
         style="display:inline;fill:#ffffff;fill-opacity:1;stroke-width:0.986768"
         transform="matrix(19,0,0,19,-920.25135,-1575.9142)" /></g></g></svg>
