<svg width="76" height="76" viewBox="0 0 76 76" fill="none" xmlns="http://www.w3.org/2000/svg">
<path d="M44.2261 37.7501C44.2254 41.185 42.8606 44.479 40.4318 46.9078C38.0029 49.3366 34.709 50.7014 31.2741 50.7022L18.32 50.7043C14.8843 50.7043 11.5894 49.3395 9.16003 46.9101C6.73066 44.4807 5.36585 41.1858 5.36585 37.7501C5.36585 34.3145 6.73066 31.0196 9.16003 28.5902C11.5894 26.1608 14.8843 24.796 18.32 24.796L24.796 24.796" stroke="#24357E" stroke-width="8.17893" stroke-linecap="round" stroke-linejoin="round"/>
<path d="M31.2743 37.7501C31.275 34.3152 32.6398 31.0212 35.0686 28.5924C37.4974 26.1636 40.7914 24.7988 44.2263 24.7981L57.1804 24.796C60.6161 24.796 63.911 26.1608 66.3404 28.5901C68.7697 31.0195 70.1345 34.3144 70.1345 37.7501C70.1345 41.1857 68.7697 44.4807 66.3404 46.91C63.911 49.3394 60.6161 50.7042 57.1804 50.7042L50.7044 50.7042" stroke="#EE9569" stroke-width="8.17893" stroke-linecap="round" stroke-linejoin="round"/>
</svg>
