<svg width="254" height="33" viewBox="0 0 254 33" fill="none" xmlns="http://www.w3.org/2000/svg">
<g clip-path="url(#clip0_200_189)">
<path d="M76.71 28.42C73.94 30.95 70.46 32.3 66.25 32.3C56.83 32.3 49.86 25.17 49.86 16.55C49.86 7.93 56.59 0.760002 65.97 0.760002C71.22 0.760002 74.87 3.13 76.59 4.84L74.46 7.52C72.53 5.59 69.77 4.24 65.64 4.24C58.94 4.24 53.94 9.41 53.94 16.75C53.94 23.56 59.55 28.85 66.28 28.85C70.41 28.85 73.33 27.37 74.93 25.88L76.69 28.41L76.71 28.42Z" fill="#104367"/>
<path d="M95.26 32.3C86.12 32.3 78.95 25.25 78.95 16.55C78.95 7.85 86.12 0.760002 95.26 0.760002C104.4 0.760002 111.45 7.49 111.45 16.67C111.45 25.32 104.04 32.3 95.26 32.3ZM95.26 4.25C88.45 4.25 83 9.46 83 16.39C83 22.96 88.33 28.85 94.98 28.85C101.63 28.85 107.36 23.52 107.36 16.63C107.36 9.74 101.83 4.25 95.26 4.25Z" fill="#104367"/>
<path d="M140.01 16.14L143.8 19.98L143.79 32.79L120.87 9.89V9.91L120.91 31.7H117.06L117.1 0.57L140.02 23.65L140.01 16.14Z" fill="#104367"/>
<path d="M143.83 1.36L143.81 8.91L139.98 5.04V1.36H143.83Z" fill="#104367"/>
<path d="M182.85 31.66V1.41H199.4V4.82H186.7V13.8H196.92V17.24H186.7V28.3L200.69 28.26V31.67H182.86L182.85 31.66Z" fill="#104367"/>
<path d="M229.93 28.42C227.16 30.95 223.68 32.3 219.47 32.3C210.05 32.3 203.08 25.17 203.08 16.55C203.08 7.93 209.81 0.760002 219.19 0.760002C224.44 0.760002 228.09 3.13 229.81 4.84L227.68 7.52C225.75 5.59 222.99 4.24 218.86 4.24C212.17 4.24 207.16 9.41 207.16 16.75C207.16 23.56 212.77 28.85 219.5 28.85C223.63 28.85 226.55 27.37 228.15 25.88L229.91 28.41L229.93 28.42Z" fill="#104367"/>
<path d="M241.03 31.7V4.81H232.18V1.4H253.74V4.81H244.88V31.7H241.03Z" fill="#104367"/>
<path d="M18.25 31.7L6.87002 20.4H6.27002V31.7H0.580017V1.36H6.83002C12.68 1.36 20.49 2.52 20.49 10.7C20.49 16.43 17.16 18.88 13.2 19.88L26.11 31.7H18.25ZM8.19002 15.23C12.48 15.23 14.48 13.75 14.48 10.74C14.48 8.21 12.68 6.53 8.35002 6.53H6.27002V15.22H8.20002L8.19002 15.23Z" fill="#168ACB"/>
<path d="M27.38 31.66V1.41H45.41V6.54H33.07V13.07H43.01V18.24H33.07V26.49H46.65V31.66H27.37H27.38Z" fill="#168ACB"/>
<path d="M156.64 25.66C156.63 26.11 156.46 26.53 156.13 26.84C155.82 27.16 155.4 27.33 154.95 27.33C154.5 27.32 154.08 27.15 153.77 26.82L143.83 16.81L140.02 12.97L135.84 8.77C135.53 8.45 135.36 8.02 135.36 7.59C135.36 7.16 135.54 6.72 135.85 6.39C136.17 6.08 136.61 5.91 137.03 5.91C137.45 5.92 137.9 6.08 138.23 6.42L139.99 8.2L143.81 12.05L156.14 24.48C156.46 24.79 156.63 25.21 156.63 25.66H156.64Z" fill="#168ACB"/>
<path d="M171.51 1.36L171.55 23.65L148.63 0.559998L148.61 13.72L152.41 17.55L152.4 9.9L175.32 32.78L175.36 1.36H171.51Z" fill="#104367"/>
<path d="M152.17 28.4L148.6 24.8V31.7H152.44V28.62C152.35 28.55 152.25 28.48 152.17 28.4Z" fill="#104367"/>
</g>
<defs>
<clipPath id="clip0_200_189">
<rect width="254" height="33" fill="white"/>
</clipPath>
</defs>
</svg>
