<?xml version="1.0" encoding="UTF-8"?><svg id="Layer_2" xmlns="http://www.w3.org/2000/svg" viewBox="0 0 791.07 166.48"><defs><style>.cls-1{fill:#008ad0;}.cls-1,.cls-2{stroke-width:0px;}.cls-2{fill:#124266;}</style></defs><g id="Layer_1-2"><path class="cls-2" d="M237.9,87.03c-8.64,7.89-19.54,12.15-32.68,12.15-29.43,0-51.22-22.29-51.22-49.21S175.03.63,204.34.63c16.4,0,27.8,7.39,33.18,12.77l-6.64,8.39c-6.01-6.01-14.65-10.27-27.55-10.27-20.91,0-36.57,16.15-36.57,39.07,0,21.29,17.53,37.82,38.57,37.82,12.9,0,22.04-4.63,27.05-9.27l5.51,7.89Z"/><path class="cls-2" d="M295.86,99.18c-28.55,0-50.96-22.04-50.96-49.21S267.31.63,295.86.63s50.59,21.04,50.59,49.71c0,27.05-23.17,48.84-50.59,48.84ZM295.86,11.52c-21.29,0-38.32,16.28-38.32,37.94,0,20.54,16.65,38.94,37.44,38.94s38.69-16.66,38.69-38.19-17.28-38.69-37.82-38.69Z"/><path class="cls-2" d="M569.57,97.17V2.63h51.72v10.64h-39.69v28.05h31.93v10.77h-31.93v34.56l43.7-.12v10.64h-55.72Z"/><path class="cls-2" d="M716.7,87.03c-8.64,7.89-19.54,12.15-32.68,12.15-29.43,0-51.22-22.29-51.22-49.21S653.84.63,683.14.63c16.4,0,27.8,7.39,33.18,12.77l-6.64,8.39c-6.01-6.01-14.65-10.27-27.55-10.27-20.91,0-36.57,16.15-36.57,39.07,0,21.29,17.53,37.82,38.57,37.82,12.9,0,22.04-4.63,27.05-9.27l5.51,7.89Z"/><path class="cls-2" d="M751.38,97.3V13.27h-27.68V2.63h67.37v10.64h-27.67v84.02h-12.02Z"/><path class="cls-1" d="M55.22,97.3L19.66,61.98h-1.88v35.31H0V2.5h19.54c18.28,0,42.7,3.63,42.7,29.18,0,17.91-10.39,25.55-22.79,28.68l40.32,36.94h-24.54ZM23.79,45.83c13.4,0,19.66-4.63,19.66-14.02,0-7.89-5.63-13.15-19.16-13.15h-6.51v27.17h6.01Z"/><path class="cls-1" d="M83.76,97.17V2.63h56.35v16.03h-38.57v20.41h31.05v16.15h-31.05v25.8h42.45v16.15h-60.23Z"/><path class="cls-1" d="M471.68,165.24v-33.45h8.22c6.94,0,12.73,1.81,12.73,8.84,0,2.87-2.78,5.57-4.82,6.41,3.05.71,7.56,3.49,7.56,8.13,0,6.27-4.51,10.08-13.83,10.08h-9.85ZM480.6,145.31c3.4,0,5.39-1.41,5.39-4.07,0-3-2.12-3.76-4.86-3.76h-3.18v7.82h2.65ZM482.72,159.54c4.11,0,5.92-1.64,5.92-4.55,0-2.08-2.21-3.98-6.19-3.98h-4.51v8.53h4.77Z"/><path class="cls-1" d="M506.76,165.24v-13.57l-12.55-19.88h7.03l8.84,14.41,8.79-14.41h6.94l-12.77,19.88v13.57h-6.27Z"/><path class="cls-1" d="M545.2,144.82l.09,20.42h-6.28l.09-34.38,24.57,22.23-.04-21.3h6.28l-.09,34.69-24.61-21.65Z"/><path class="cls-1" d="M577.01,165.2v-33.36h19.89v5.66h-13.61v7.2h10.96v5.7h-10.96v9.1h14.98v5.7h-21.26Z"/><path class="cls-1" d="M624.51,131.79h6.28v29.34c-2.61,2.7-7.03,4.9-13.88,4.9-8.84,0-13.79-4.33-13.79-13.12v-21.12h6.27v17.5c0,8.4,1.72,11.14,8.53,11.14,2.7,0,4.95-.71,6.58-1.77v-26.87Z"/><path class="cls-1" d="M644.74,165.24v-27.75h-9.85v-5.66h26.03v5.66h-9.9v27.75h-6.28Z"/><path class="cls-1" d="M684.64,165.24l-12.55-12.46h-.66v12.46h-6.28v-33.45h6.89c6.45,0,15.07,1.28,15.07,10.3,0,6.32-3.67,9.01-8.04,10.12l14.23,13.04h-8.66ZM673.55,147.08c4.73,0,6.94-1.63,6.94-4.95,0-2.78-1.99-4.64-6.76-4.64h-2.3v9.59h2.12Z"/><path class="cls-1" d="M694.71,165.24v-33.45h6.28v33.45h-6.28Z"/><path class="cls-1" d="M714.29,144.82l.09,20.42h-6.28l.09-34.38,24.57,22.23-.04-21.3h6.28l-.09,34.69-24.61-21.65Z"/><path class="cls-1" d="M762.62,165.99c-10.21,0-18.38-7.91-18.38-17.45s8.17-17.5,18.38-17.5,18.25,7.56,18.25,17.63c0,9.5-8.4,17.32-18.25,17.32ZM762.62,136.69c-6.41,0-11.71,5.13-11.71,11.67s5.17,12.02,11.4,12.02c6.63,0,11.84-5.21,11.84-11.75s-5.3-11.93-11.53-11.93Z"/><path class="cls-1" d="M478.66,82.1c.99,1,2.3,1.56,3.71,1.56.01,0,.02,0,.03,0,1.39,0,2.7-.54,3.69-1.52,1-.99,1.56-2.3,1.56-3.71.01-1.41-.53-2.73-1.51-3.73l-55.99-56.42c-1.03-1.04-2.39-1.57-3.75-1.57s-2.67.5-3.69,1.51c-1,.99-1.56,2.3-1.56,3.71s.53,2.73,1.52,3.73l56,56.43Z"/><polygon class="cls-2" points="534.14 2.5 534.27 72.13 462.64 0 462.59 41.1 474.46 53.06 474.41 29.18 546.04 100.68 546.16 2.5 534.14 2.5"/><polygon class="cls-2" points="447.59 25.99 447.62 2.5 435.6 2.5 435.62 13.93 447.59 25.99"/><path class="cls-2" d="M473.71,86.99l-11.17-11.25-.03,21.56h12.02l-.02-9.57c-.28-.24-.55-.48-.81-.74Z"/><polygon class="cls-2" points="447.55 60.63 435.69 48.67 435.73 72.13 364.1 0 363.98 97.3 376 97.3 375.87 29.18 447.5 100.68 447.55 60.63"/></g></svg>