<svg width="144" height="30" viewBox="0 0 144 30" fill="none" xmlns="http://www.w3.org/2000/svg">
<g clip-path="url(#clip0_442_3552)">
<path d="M43.0444 15.7489C41.4806 17.1774 39.5108 17.9452 37.132 17.9452C31.8079 17.9452 27.8652 13.9113 27.8652 9.04031C27.8652 4.16937 31.6726 0.113403 36.9746 0.113403C39.9419 0.113403 42.0061 1.45071 42.9784 2.42301L41.7764 3.93967C40.6876 2.85095 39.1269 2.08318 36.7921 2.08318C33.0068 2.08318 30.1748 5.00637 30.1748 9.15359C30.1748 13.005 33.3466 15.9974 37.154 15.9974C39.4888 15.9974 41.1407 15.1605 42.047 14.3203L43.0444 15.7489Z" fill="white"/>
<path d="M53.5335 17.9452C48.3668 17.9452 44.3108 13.9585 44.3108 9.04031C44.3108 4.12217 48.3668 0.113403 53.5335 0.113403C58.7002 0.113403 62.6869 3.92079 62.6869 9.10954C62.6869 14.0025 58.4957 17.9452 53.5335 17.9452ZM53.5335 2.08632C49.682 2.08632 46.6015 5.03154 46.6015 8.95221C46.6015 12.6683 49.616 15.9974 53.3761 15.9974C57.1363 15.9974 60.3773 12.983 60.3773 9.08751C60.3773 5.19202 57.2496 2.08632 53.5335 2.08632Z" fill="white"/>
<path d="M68.0103 5.28L68.0323 17.6052H65.858L65.8801 0L78.8409 13.0521L78.8189 0.453111H80.9932L80.9712 18.2157L68.0103 5.27685V5.28Z" fill="white"/>
<path d="M85.8388 5.28L85.8608 17.6052H83.6865L83.7086 0L96.6694 13.0521L96.6474 0.453111H98.8217L98.7996 18.2157L85.8388 5.27685V5.28Z" fill="white"/>
<path d="M103.057 17.5833V0.478394H112.415V2.40411H105.231V7.47958H111.008V9.42733H105.231V15.6796L113.138 15.6576V17.5833H103.057Z" fill="white"/>
<path d="M129.677 15.7489C128.113 17.1774 126.143 17.9452 123.764 17.9452C118.44 17.9452 114.497 13.9113 114.497 9.04031C114.497 4.16937 118.305 0.113403 123.607 0.113403C126.574 0.113403 128.638 1.45071 129.611 2.42301L128.409 3.93967C127.32 2.85095 125.759 2.08318 123.424 2.08318C119.639 2.08318 116.807 5.00637 116.807 9.15359C116.807 13.005 119.979 15.9974 123.786 15.9974C126.121 15.9974 127.773 15.1605 128.679 14.3203L129.677 15.7489Z" fill="white"/>
<path d="M135.952 17.6053V2.40094H130.945V0.47522H143.135V2.40094H138.129V17.6053H135.952Z" fill="white"/>
<path d="M9.99034 17.6053L3.55554 11.2145H3.2157V17.6053H-0.00012207V0.453125H3.53351C6.84059 0.453125 11.2584 1.11076 11.2584 5.73312C11.2584 8.97412 9.37675 10.3555 7.13637 10.9219L14.4333 17.6053H9.99034ZM4.30443 8.29446C6.73046 8.29446 7.86009 7.45746 7.86009 5.75829C7.86009 4.32974 6.84059 3.37946 4.39253 3.37946H3.2157V8.29446H4.30443Z" fill="white"/>
<path d="M15.1579 17.5833V0.478394H25.3529V3.37956H18.3738V7.07367H23.9936V9.99686H18.3738V14.6633H26.0546V17.5865H15.1548L15.1579 17.5833Z" fill="white"/>
<path d="M86.16 15.2988L76.0279 5.08809C75.4143 4.46821 75.4206 3.46444 76.0437 2.854C76.6667 2.24356 77.6673 2.24671 78.2777 2.86974L88.4098 13.0805C89.0234 13.7003 89.0171 14.7041 88.3941 15.3145C87.771 15.925 86.7704 15.9218 86.16 15.2988Z" fill="white"/>
<path d="M-0.254639 28.9495V22.0483H1.4541C2.89703 22.0483 4.07416 22.4275 4.07416 23.8684C4.07416 25.3093 3.50458 25.006 3.08689 25.1956C3.73242 25.3472 4.64374 25.916 4.64374 26.864C4.64374 27.8119 3.73241 28.9495 1.79584 28.9495H-0.254639ZM1.56802 24.8164C2.25151 24.8164 2.6692 24.513 2.6692 23.9822C2.6692 23.4513 2.21354 23.2238 1.68193 23.2238H1.0364V24.8164H1.56802ZM2.02368 27.774C2.85906 27.774 3.23878 27.4327 3.23878 26.826C3.23878 26.2193 2.78312 25.9918 1.94773 25.9918H1.0364V27.7361H2.02368V27.774Z" fill="#FEFFFF"/>
<path d="M6.96014 28.9495V26.1435L4.37805 22.0483H5.82099L7.64364 25.006L9.46629 22.0483H10.9092L8.28916 26.1435V28.9495H6.99812H6.96014Z" fill="#FEFFFF"/>
<path d="M14.8969 24.7406V28.9495H13.6058V21.8588L18.6941 26.4469V22.0484H19.9851V29.177L14.8969 24.7026V24.7406Z" fill="#FEFFFF"/>
<path d="M21.4655 28.9115V22.0483H25.5664V23.2238H22.7565V24.7026H25.0348V25.8781H22.7565V27.7361H25.8322V28.9115H21.4655Z" fill="#FEFFFF"/>
<path d="M31.2616 22.0484H32.5526V28.0774C32.021 28.6462 31.1097 29.1012 29.7047 29.1012C28.2997 29.1012 26.8568 28.1912 26.8568 26.409V22.0484H28.1479V25.6506C28.1479 27.3949 28.4896 27.9257 29.8946 27.9257C31.2995 27.9257 30.9198 27.7741 31.2616 27.5466V22.0105V22.0484Z" fill="#FEFFFF"/>
<path d="M35.4382 28.9495V23.2238H33.3877V22.0483H38.7417V23.2238H36.6913V28.9495H35.4002H35.4382Z" fill="#FEFFFF"/>
<path d="M43.6417 28.9495L41.0596 26.371H40.9077V28.9495H39.6167V22.0483H41.0217C42.3507 22.0483 44.1354 22.3138 44.1354 24.1718C44.1354 26.0298 43.3759 26.0298 42.4646 26.2573L45.3884 28.9495H43.6038H43.6417ZM41.3634 25.1956C42.3507 25.1956 42.8063 24.8543 42.8063 24.1718C42.8063 23.4892 42.3886 23.2238 41.4014 23.2238H40.9457V25.1956H41.4014H41.3634Z" fill="#FEFFFF"/>
<path d="M45.7289 28.9495V22.0483H47.0199V28.9495H45.7289Z" fill="#FEFFFF"/>
<path d="M49.7549 24.7406V28.9495H48.4639V21.8588L53.5521 26.4469V22.0484H54.8432V29.177L49.7549 24.7026V24.7406Z" fill="#FEFFFF"/>
<path d="M59.7404 29.1012C57.652 29.1012 55.9432 27.4707 55.9432 25.499C55.9432 23.5272 57.614 21.8967 59.7404 21.8967C61.8669 21.8967 63.4996 23.4514 63.4996 25.5369C63.4996 27.6224 61.7529 29.1012 59.7404 29.1012ZM59.7404 23.0722C58.4114 23.0722 57.3102 24.1339 57.3102 25.461C57.3102 26.7882 58.3734 27.9257 59.6645 27.9257C60.9555 27.9257 62.0947 26.864 62.0947 25.499C62.0947 24.1339 60.9935 23.0343 59.7025 23.0343L59.7404 23.0722Z" fill="#FEFFFF"/>
</g>
<defs>
<clipPath id="clip0_442_3552">
<rect width="143.136" height="29.177" fill="white"/>
</clipPath>
</defs>
</svg>
