<svg width="144" height="19" viewBox="0 0 144 19" fill="none" xmlns="http://www.w3.org/2000/svg">
<path d="M43.0444 15.7489C41.4806 17.1774 39.5108 17.9452 37.132 17.9452C31.8079 17.9452 27.8652 13.9113 27.8652 9.04031C27.8652 4.16937 31.6726 0.113403 36.9746 0.113403C39.9419 0.113403 42.0061 1.45071 42.9784 2.42301L41.7764 3.93967C40.6876 2.85095 39.1269 2.08318 36.7921 2.08318C33.0068 2.08318 30.1748 5.00637 30.1748 9.15359C30.1748 13.005 33.3466 15.9974 37.154 15.9974C39.4888 15.9974 41.1407 15.1605 42.047 14.3203L43.0444 15.7489Z" fill="white"/>
<path d="M53.5335 17.9452C48.3668 17.9452 44.3108 13.9585 44.3108 9.04031C44.3108 4.12217 48.3668 0.113403 53.5335 0.113403C58.7002 0.113403 62.6869 3.92079 62.6869 9.10954C62.6869 14.0025 58.4957 17.9452 53.5335 17.9452ZM53.5335 2.08632C49.682 2.08632 46.6015 5.03154 46.6015 8.95221C46.6015 12.6683 49.616 15.9974 53.3761 15.9974C57.1363 15.9974 60.3773 12.983 60.3773 9.08751C60.3773 5.19202 57.2496 2.08632 53.5335 2.08632Z" fill="white"/>
<path d="M68.0103 5.28L68.0323 17.6052H65.858L65.8801 0L78.8409 13.0521L78.8189 0.453111H80.9932L80.9712 18.2157L68.0103 5.27685V5.28Z" fill="white"/>
<path d="M85.8388 5.28L85.8608 17.6052H83.6865L83.7086 0L96.6694 13.0521L96.6474 0.453111H98.8217L98.7996 18.2157L85.8388 5.27685V5.28Z" fill="white"/>
<path d="M103.057 17.5833V0.478394H112.415V2.40411H105.231V7.47958H111.008V9.42733H105.231V15.6796L113.138 15.6576V17.5833H103.057Z" fill="white"/>
<path d="M129.677 15.7489C128.113 17.1774 126.143 17.9452 123.764 17.9452C118.44 17.9452 114.497 13.9113 114.497 9.04031C114.497 4.16937 118.305 0.113403 123.607 0.113403C126.574 0.113403 128.638 1.45071 129.611 2.42301L128.409 3.93967C127.32 2.85095 125.759 2.08318 123.424 2.08318C119.639 2.08318 116.807 5.00637 116.807 9.15359C116.807 13.005 119.979 15.9974 123.786 15.9974C126.121 15.9974 127.773 15.1605 128.679 14.3203L129.677 15.7489Z" fill="white"/>
<path d="M135.952 17.6053V2.40094H130.945V0.47522H143.135V2.40094H138.129V17.6053H135.952Z" fill="white"/>
<path d="M9.99034 17.6053L3.55554 11.2145H3.2157V17.6053H-0.00012207V0.453125H3.53351C6.84059 0.453125 11.2584 1.11076 11.2584 5.73312C11.2584 8.97412 9.37675 10.3555 7.13637 10.9219L14.4333 17.6053H9.99034ZM4.30443 8.29446C6.73046 8.29446 7.86009 7.45746 7.86009 5.75829C7.86009 4.32974 6.84059 3.37946 4.39253 3.37946H3.2157V8.29446H4.30443Z" fill="white"/>
<path d="M15.1579 17.5833V0.478394H25.3529V3.37956H18.3738V7.07367H23.9936V9.99686H18.3738V14.6633H26.0546V17.5865H15.1548L15.1579 17.5833Z" fill="white"/>
<path d="M86.16 15.2988L76.0279 5.08809C75.4143 4.46821 75.4206 3.46444 76.0437 2.854C76.6667 2.24356 77.6673 2.24671 78.2777 2.86974L88.4098 13.0805C89.0234 13.7003 89.0171 14.7041 88.3941 15.3145C87.771 15.925 86.7704 15.9218 86.16 15.2988Z" fill="white"/>
</svg>
